<svg xmlns="http://www.w3.org/2000/svg" viewBox="0 0 512 512"><path d="M140.86 396.5V254.1l-31.18 19.56-29.48-47 24.4-15.3 31.82-19.78a6.75 6.75 0 0 0 3.76-6.73l-.08-65.4h55.82v35c2.24.7 3.24-.7 4.43-1.43q26-15.87 51.95-31.86c2.1-1.3 3.72-1.93 6.25-.37q85 52.44 170.2 104.67a21.2 21.2 0 0 1 1.82 1.45l-28.83 46.74-30.62-19.2v142z" fill="#fdfefe"/><path d="M462 0H50A50.15 50.15 0 0 0 0 50v412a50.15 50.15 0 0 0 50 50h412a50.15 50.15 0 0 0 50-50V50a50.15 50.15 0 0 0-50-50zm-60.26 273.67l-30.62-19.2v142H140.86V254.1l-31.18 19.56-29.48-47 24.4-15.3 31.82-19.78a6.75 6.75 0 0 0 3.76-6.73l-.08-65.4h55.82v35c2.24.7 3.24-.7 4.43-1.43q26-15.87 51.95-31.86c2.1-1.3 3.72-1.93 6.25-.37q85 52.44 170.2 104.67a21.2 21.2 0 0 1 1.82 1.45z" fill="#00b146"/></svg>